<?xml version="1.0" standalone="no"?>
<!DOCTYPE svg PUBLIC "-//W3C//DTD SVG 20010904//EN"
 "http://www.w3.org/TR/2001/REC-SVG-20010904/DTD/svg10.dtd">
<svg version="1.0" xmlns="http://www.w3.org/2000/svg"
 width="1280.000000pt" height="640.000000pt" viewBox="0 0 1280.000000 640.000000"
 preserveAspectRatio="xMidYMid meet">
<metadata>
Created by potrace 1.15, written by Peter Selinger 2001-2017
</metadata>
<g transform="translate(0.000000,640.000000) scale(0.100000,-0.100000)"
fill="#000000" stroke="none">
<path d="M1363 5661 c-144 -52 -343 -244 -664 -641 -114 -140 -259 -313 -323
-385 -138 -154 -209 -251 -270 -365 -238 -449 -69 -800 519 -1081 141 -67 459
-187 668 -253 476 -148 855 -207 2227 -346 658 -66 1834 -188 2130 -221 305
-33 515 -56 1430 -159 1390 -155 2079 -224 2730 -271 237 -17 589 -18 618 -1
20 11 21 16 10 29 -23 28 -145 78 -368 151 -278 92 -326 105 -500 141 -478 98
-1178 176 -3050 341 -377 33 -802 71 -945 84 -321 31 -469 41 -945 66 -904 48
-1334 93 -1890 201 -659 127 -1501 367 -1834 523 -200 93 -361 228 -422 352
-37 75 -45 209 -19 300 61 211 266 457 700 839 435 383 540 526 460 631 -32
42 -117 84 -169 84 -23 -1 -64 -9 -93 -19z"/>
<path d="M10553 2903 c-22 -8 -14 -68 17 -129 16 -32 30 -60 30 -62 0 -1 -14
5 -30 13 -17 9 -40 13 -51 10 -44 -14 -48 -74 -23 -375 35 -424 -4 -727 -156
-1195 -34 -104 -64 -217 -67 -250 -4 -48 -12 -69 -40 -105 -37 -49 -40 -83 -6
-88 30 -4 140 35 360 129 648 277 1002 388 1744 548 270 59 348 81 380 108 8
7 25 13 36 13 31 0 53 10 53 25 0 24 -109 86 -391 220 -619 296 -922 479
-1456 881 -155 117 -296 220 -312 229 -47 24 -75 33 -88 28z m530 -706 c307
-245 678 -443 1047 -562 165 -52 166 -54 80 -54 -88 -1 -297 -24 -425 -46
-369 -64 -753 -196 -1064 -365 -50 -27 -94 -50 -96 -50 -2 0 17 30 42 68 65
96 129 228 168 346 55 166 68 243 68 416 0 177 -18 281 -76 425 l-34 85 99
-95 c54 -52 140 -128 191 -168z"/>
</g>
</svg>
