<?xml version="1.0" encoding="UTF-8" standalone="no"?><svg xmlns="http://www.w3.org/2000/svg" width="645" height="270" version="1.1"><path d="M 72.184621,99.39089 C 68.398038,95.61996 48.405425,73.700329 50.716835,49.985704 C 52.990823,26.655017 76.884556,12.578576 98.97427,11.448114 C 119.34404,10.405671 142.83345,16.156173 152.28457,35.843184 C 162.40413,56.922579 150.99532,81.842705 134.24772,94.48352 C 128.42088,98.881524 127.0609,99.082849 118.46055,102.84216 C 106.06795,108.25911 93.590914,113.54803 80.869078,118.1294 C 54.582831,127.59557 34.539139,149.03858 35.259701,178.23878 C 35.916374,204.84994 59.631137,225.67546 85.210802,229.70364 C 112.43115,233.99018 134.41358,229.54707 153.1347,208.67628 C 161.17912,199.70814 177.58763,184.99294 185.76751,176.14503 C 200.25035,160.47941 207.7442,147.82465 213.06419,126.69158 C 216.66826,112.37483 192.54569,115.67347 196.78314,103.62942 C 222.23036,100.69638 247.81229,99.84462 273.34564,97.96536 C 277.34887,109.81154 263.97786,106.33066 246.61613,121.01207 C 227.0104,137.59107 217.88679,151.73768 201.01195,170.86236 L 189.11358,184.34708 C 181.10521,193.42317 167.95634,207.85044 159.78314,216.77784 C 142.32024,235.85217 126.21297,247.41796 100.27427,252.39343 C 72.543606,257.71262 39.651129,254.69839 20.122962,231.94973 C -0.62641014,207.77846 -4.0848351,167.90434 18.462826,143.66847 C 33.171306,127.85873 41.031184,120.17885 60.724466,112.09432 C 76.147466,105.76283 100.05575,99.431353 112.29677,94.160526 C 139.69178,82.364582 140.40896,53.478721 127.50818,32.380115 C 116.44184,14.281646 83.908653,15.752833 77.904904,37.000557 C 72.689417,55.458561 80.089538,67.982449 91.37226,80.93907 L 187.58994,191.43156 C 199.42503,205.63979 217.24414,228.88851 237.39579,232.51125 C 250.72342,234.90721 267.9319,228.93995 277.27793,220.4821 C 282.25334,229.49138 275.03265,236.84049 269.43939,242.49659 C 251.14471,260.99681 219.58458,257.23653 199.30993,242.48439 C 187.00911,233.53413 178.95611,227.18492 167.95716,215.15746 L 72.184621,99.39089 z "/><path d="M 467.87165,46.258342 C 458.26985,41.880537 447.59586,36.971769 450.38049,21.669704 C 453.21928,6.0699732 475.03839,-5.3179208 483.87041,10.161587 C 492.67465,25.59242 486.28263,37.52563 475.35013,49.00563 L 324.11712,217.29034 C 354.80477,245.1428 399.68353,249.60709 438.96771,240.07019 C 474.62149,231.41464 505.42853,209.46248 527.80349,180.97447 C 540.14963,165.25525 551.31489,148.43931 559.07806,129.98565 C 541.86522,118.35663 526.50176,103.3788 506.90507,95.842692 C 491.85804,90.0562 475.45358,101.90208 474.50775,118.65754 C 473.86386,130.06413 477.9497,135.47102 488.72702,137.84891 C 492.2411,101.30336 536.31485,129.27116 500.48417,143.38904 C 484.10404,149.84308 467.23785,137.24513 466.60973,120.73278 C 465.61259,94.519512 493.14255,75.336837 517.91881,79.808792 C 549.38359,85.487983 571.47716,110.39934 599.62962,122.93006 C 612.61132,128.70825 626.17041,120.0851 630.99552,107.04571 C 635.31325,95.377472 623.67743,70.01115 612.98431,81.548164 C 626.26022,99.736462 590.16619,103.13501 595.91869,83.232837 C 601.23471,64.840779 626.91992,67.972926 634.95675,82.84221 C 649.12511,109.05572 624.57326,139.33208 596.77337,141.31378 C 584.47544,142.19043 581.30592,139.02038 566.40213,133.91632 C 547.07682,171.15081 518.11329,213.11698 482.90619,237.0169 C 446.37584,261.81509 399.83959,275.96866 356.37108,265.52948 C 322.6903,257.44087 289.7218,231.15358 285.60793,194.7207 C 282.53861,167.53851 291.2552,138.96739 308.05263,117.87637 C 325.32797,96.185262 352.69057,78.81248 382.0455,83.684521 C 393.43788,85.575315 405.27256,100.12432 410.02632,111.08016 C 412.53491,116.86163 404.64845,122.01544 397.35931,123.14971 C 379.68035,125.90076 388.52571,104.32178 384.51741,95.903762 C 378.8078,83.912742 354.31943,93.578432 343.70019,102.38263 C 328.21533,115.22083 315.74666,132.12298 310.99455,152.14146 C 306.35866,171.67037 308.96443,192.90906 319.23431,210.06378 L 467.87165,46.258342 z "/></svg>